<?xml version="1.0" encoding="utf-8"?>
<!-- Generator: Adobe Illustrator 22.1.0, SVG Export Plug-In . SVG Version: 6.00 Build 0)  -->
<svg version="1.1" id="Calque_1" xmlns:serif="http://www.serif.com/"
	 xmlns="http://www.w3.org/2000/svg" xmlns:xlink="http://www.w3.org/1999/xlink" x="0px" y="0px" viewBox="0 0 612 187"
	 style="enable-background:new 0 0 612 187;" xml:space="preserve">
<style type="text/css">
	.st0{fill:#712E91;}
	.st1{fill:#231F20;}
</style>
<g>
	<path class="st0" d="M498.8,63c6.3,0,10-6,10-11.2c0-4-2-7.5-6.7-7.5c-6.3,0-10,6.2-10,11.3C492.1,59.5,494.2,63,498.8,63z"/>
	<path class="st0" d="M337.2,8c-30.2,0-60.6,20.9-60.6,61.2c0,24.1,13,47,40.1,50.6c-3.9,16.8-8.6,28.8-15,35.1
		c-6.5-2.7-12-5-18.5-5l-3.6,20.8c7.6,0,15.5-1.9,22.9-6.7c7.3,2.9,18.2,6,35.4,6c39.3,0,63.5-46.7,63.5-89.1
		C401.4,30.6,371.3,8,337.2,8z M337.9,162.7c-12.2,0-21.1-2.2-28.2-4.7c7.6-7.9,14.5-19.9,19.6-38c24.1-2.3,38-20.9,38-39.3
		c0-7.6-2.4-15.2-7.4-21.5l-10.6,9.5c3.3,4.4,4.9,9.7,4.9,15c0,12.5-8.4,25.4-22.8,28.5c1.9-7.9,3.3-16.6,4.6-26.7
		c3.2-26.2,6.7-41.7,10.7-53l-13.3-3.3c-3.9,11.5-7,29.5-10.7,56.3c-1.4,9.7-2.9,18.8-4.4,26.8C298.6,109,289,89.5,289,69.7
		c0-32.1,21.9-54.6,48.3-54.6c26.8,0,48.6,20.5,48.6,69.1C385.9,122,369.1,162.7,337.9,162.7L337.9,162.7z"/>
	<path class="st1" d="M202.3,25.6c-10.9,0-20.3,3.3-27.7,8.7c0-0.2,0-0.4,0-0.7c0-7.3-4.6-11.3-9.6-11.3c-4.3,0-8.9,2.9-11.6,8.9
		c-4.9,11.2-12.7,43.7-17.7,73.9c-4.1,10.4-9.1,21.9-12.7,21.9c-1.9,0-2.9-3.2-2.9-9.2c0-5.3,0.7-12.8,2.1-22.6
		c1.7-5.9,3.2-11.5,4.4-16.9c2.6,0,5.3,0,5.9-0.1l1.3-6.7c-1.3,0.1-3.3,0.3-5.6,0.3c2.4-11.5,3.9-22.3,4.6-34.1h-10.2
		c-3.3,14.5-5.2,24.1-7,34c-3,0-5.5-0.1-6.5-0.1l-1,6.7c0.6,0.1,3,0.1,6.3,0.1c-3.3,14.6-4.9,28.8-4.9,39.3
		c0,12.2,2.6,19.9,8.9,19.9c6,0,10-4.2,14.4-13.4c-1.3,10.1-2,19.2-2,26.3c0,16.6,6.7,19.6,13.3,19.6c7.6,0,12.9-8.7,12.9-19.1
		c0-6.9-2.4-14.5-8.2-20.5c7.1-2.3,12.3-7.1,16.4-13.6c-0.1,1.4-0.2,2.8-0.2,4.1c0,9.6,2.6,16.5,10.2,16.5c3.9,0,7.2-2.4,9.9-6.3
		c-0.6,3.6-1.3,7-1.9,10.3c-11,9.6-19.6,18.1-19.6,27.5c0,7.6,4.6,11.3,11,11.3c9.2,0,14.6-10.6,17.1-25.1l2.6-15.2
		c20.8-17.3,48.1-39.1,48.1-75.1C242.6,37.8,223.5,25.6,202.3,25.6L202.3,25.6z M179.1,165.3c-0.9,4.4-2,7.3-4.4,7.3
		c-1.4,0-2.9-1.1-2.9-3.9c0-5.9,3.9-11.6,9.9-17.5L179.1,165.3L179.1,165.3z M166.8,31.6c0.9,0,1.4,1.1,1.4,3.2
		c0,1.8-0.2,3.7-0.4,5.6c-2.5,2.8-4.5,5.8-6.2,9.1l4.1,1.7c-3.5,13.8-10,28.2-15,37.4C156.8,59.4,163.9,31.6,166.8,31.6z M150.2,153
		c0,5.4-1.9,9.7-4.9,9.7c-2.4,0-3.4-4.2-3.4-11c0-4.7,0.4-10.5,1.2-17.1C148,139.6,150.2,147,150.2,153z M196.2,130.5
		c4.1-23.4,9.5-52.4,11.2-59.2h-11.7c-2.9,13.3-8.7,55.6-15.9,55.6c-1.3,0-2.9-0.7-2.9-4.9c0-5.7,1.3-12.5,2.9-20.5
		c3.6-18.3,6.5-30.2,6.5-30.2H174c0,0-2.9,11.3-6.5,30c-0.1,0.5-0.2,0.9-0.2,1.4c-4.7,12.5-11.6,20.3-23,21.8
		c1-6.7,2.1-13.9,3.6-21.2c6.2-8.6,19.2-28.3,24.5-50.9c6.4-13.4,17.8-19.6,30-19.6c17.5,0,30.1,11.2,30.1,32.2
		C232.4,95.1,213.9,114.9,196.2,130.5L196.2,130.5z"/>
	<path class="st1" d="M79.4,100.4c-16.6,0-26.5,13.2-26.5,27.9c0,5.2,1.3,10.5,3.9,15.5l13.2-6.5c-2.3-4-3.3-8.3-3.3-12.3
		c0-8.7,5-16.1,12-16.1c8,0,12.3,8.9,12.3,19.5c0,15.6-9.5,35-31.1,35c-18.5,0-27.9-15.8-27.9-33.7c0-19.2,10.9-40.8,33-47.9
		c4.3,2.4,9.5,3.9,15.6,3.9h0.9L82.8,74h-1.4c-3.9,0-7.7,0.3-11.2,0.9c-1.6-1.7-2.9-3.9-3.9-6.2C90.6,62.1,102,44.6,102,30.5
		C102,19,94.6,9.7,80.5,9.7C60,9.7,48.7,30,48.7,49.7c0,5,0.7,9.9,2.2,14.3c-2.2,0.1-4.3,0.3-6.6,0.3c-23.6,0-32.9-11.7-32.9-21.5
		c0-6.7,4.6-12.5,12-12.5c6.9,0,10.5,3.6,13.2,9.5l9.9-7.5c-5.7-10-13.2-13.6-23.1-13.6C9.2,18.7,0,30,0,42.2
		c0,14,12.5,29.2,44.3,29.2c3.4,0,6.6-0.1,9.7-0.4c1.3,2.3,3,4.4,4.9,6.3c-27.2,8.6-41.3,32.1-41.3,53.5c0,21.1,13.6,39.8,41.4,39.8
		c29.8,0,44.9-23.2,44.9-43C103.9,113,95.7,100.4,79.4,100.4L79.4,100.4z M80,16.8c5.6,0,8.9,5.4,8.9,12.5
		c0,10.7-7.3,25.5-25.1,31.8c-0.9-3.9-1.3-8-1.3-12.3C62.5,32.9,68.5,16.8,80,16.8z"/>
	<path class="st0" d="M607.8,102.4c-6.3,16.5-11,24.5-14.8,24.5c-1.3,0-2.9-0.7-2.9-4.9c0-11.7,9.3-28.8,9.3-42.1
		c0-6.9-3.3-10.2-8.3-10.2c-6,0-11.8,4.3-16.3,11.2l1.6-9.6h-12.3c-1.3,8.5-3.1,19.2-5.2,31.2c-3.7,9.7-9.3,17.7-15.3,24.5
		c4.2-22.8,8.9-49.4,10.6-55.7h-11.7l-1.3,6.2c-1-5-3.4-7.6-7.9-7.6c-10.1,0-18.7,16.3-22.5,33c-6.2,16.1-10.9,24-14.6,24
		c-1.3,0-2.9-0.7-2.9-4.9c0-11.7,4.2-28.4,9.2-50.7h-12.2c-1.6,7-5,19.6-7.1,32c-2.1,5.3-4.2,10.2-6.8,14.4v-0.6
		c0-16-14-30.9-14.5-43c1.7-6.3,3.2-13.2,4.3-20.9l-9.7-1.9c-2.3,7-3.3,13.3-3.3,19.1c0,4.9,0.7,9.5,1.7,13.8
		c-2.7,6.9-5.4,13.3-7.3,18.2c-5.5,14.6-12.5,23.5-20.9,23.5c-6.6,0-9-6.9-9-15.5v-2.2c16.9-2.7,25.5-16.5,25.5-26.7
		c0-6.6-3.6-11.8-10.7-11.8c-16,0-26.8,23.8-26.8,43.3c0,13.5,5.2,24.9,17.6,24.9c14,0,21.2-14.9,28.4-33.7c1.6-4.3,3.4-8.7,5-13.5
		c3.2,10.2,7.3,18.8,7.3,27.7c0,5.2-2,7.7-5.6,7.7c-2.7,0-4.4-1.1-6.3-4.3l-8.7,6.3c2,5.9,7.5,9.7,14.2,9.7
		c11.2,0,18.4-8.6,24.1-19.9c0,0.7,0,1.4,0,2.1c0,9.9,2.6,17.1,10.3,17.1c7.8,0,12.6-7.3,16.8-16.9c0.1,10.2,3,17.6,9.9,17.6
		c5.9,0,10.6-4.3,14.2-10.7c-0.9,4.4-1.4,9-2.3,13.3c-10.6,10.2-19.8,18.3-19.8,28.2c0,7.6,4.6,11.3,11,11.3
		c9.2,0,14.6-10.6,17.1-25.1l3.1-18.5c4.4-4.5,8.8-9.8,12.8-16.1c-2.2,8.4-2.9,16.1-2.9,16.1h12.5L570,107
		c4.7-20.2,11-26.9,14.6-26.9c1.6,0,2.3,1.3,2.3,2.9c0,10.3-9.3,26.2-9.3,41.7c0,8.7,4.7,12.8,9.7,12.8c11.8,0,18.2-16.6,24.5-33
		C611.9,103.5,608.7,102.4,607.8,102.4L607.8,102.4z M431.3,78.7c1.4,0,2.3,1.4,2.3,3.6c0,5.3-4.7,15.2-15.5,20.5
		C419.8,90.9,425.4,78.7,431.3,78.7L431.3,78.7z M526,165.3c-0.9,4.4-2,7.3-4.4,7.3c-1.4,0-2.9-1.2-2.9-3.9
		c0-6.9,4.2-12.5,10.2-18.8L526,165.3z M523.7,125.9c-2.1,0-3-3-3-7.4c0-13,7.3-38.3,13.3-38.3c3.2,0,4.4,3.7,4.4,9
		C538.5,102.5,530.3,125.9,523.7,125.9z"/>
</g>
</svg>
