<?xml version="1.0" encoding="UTF-8" standalone="no"?>
<!DOCTYPE svg PUBLIC "-//W3C//DTD SVG 1.1//EN" "http://www.w3.org/Graphics/SVG/1.1/DTD/svg11.dtd">
<svg width="100%" height="100%" viewBox="0 0 612 187" version="1.1" xmlns="http://www.w3.org/2000/svg" xmlns:xlink="http://www.w3.org/1999/xlink" xml:space="preserve" xmlns:serif="http://www.serif.com/" style="fill-rule:evenodd;clip-rule:evenodd;stroke-linejoin:round;stroke-miterlimit:2;">
    <g>
        <path d="M498.8,63C505.1,63 508.8,57 508.8,51.8C508.8,47.8 506.8,44.3 502.1,44.3C495.8,44.3 492.1,50.5 492.1,55.6C492.1,59.5 494.2,63 498.8,63Z" style="fill:rgb(113,46,145);fill-rule:nonzero;"/>
        <path d="M337.2,8C307,8 276.6,28.9 276.6,69.2C276.6,93.3 289.6,116.2 316.7,119.8C312.8,136.6 308.1,148.6 301.7,154.9C295.2,152.2 289.7,149.9 283.2,149.9L279.6,170.7C287.2,170.7 295.1,168.8 302.5,164C309.8,166.9 320.7,170 337.9,170C377.2,170 401.4,123.3 401.4,80.9C401.4,30.6 371.3,8 337.2,8ZM337.9,162.7C325.7,162.7 316.8,160.5 309.7,158C317.3,150.1 324.2,138.1 329.3,120C353.4,117.7 367.3,99.1 367.3,80.7C367.3,73.1 364.9,65.5 359.9,59.2L349.3,68.7C352.6,73.1 354.2,78.4 354.2,83.7C354.2,96.2 345.8,109.1 331.4,112.2C333.3,104.3 334.7,95.6 336,85.5C339.2,59.3 342.7,43.8 346.7,32.5L333.4,29.2C329.5,40.7 326.4,58.7 322.7,85.5C321.3,95.2 319.8,104.3 318.3,112.3C298.6,109 289,89.5 289,69.7C289,37.6 310.9,15.1 337.3,15.1C364.1,15.1 385.9,35.6 385.9,84.2C385.9,122 369.1,162.7 337.9,162.7Z" style="fill:rgb(113,46,145);fill-rule:nonzero;"/>
        <path d="M202.3,25.6C191.4,25.6 182,28.9 174.6,34.3L174.6,33.6C174.6,26.3 170,22.3 165,22.3C160.7,22.3 156.1,25.2 153.4,31.2C148.5,42.4 140.7,74.9 135.7,105.1C131.6,115.5 126.6,127 123,127C121.1,127 120.1,123.8 120.1,117.8C120.1,112.5 120.8,105 122.2,95.2C123.9,89.3 125.4,83.7 126.6,78.3C129.2,78.3 131.9,78.3 132.5,78.2L133.8,71.5C132.5,71.6 130.5,71.8 128.2,71.8C130.6,60.3 132.1,49.5 132.8,37.7L122.6,37.7C119.3,52.2 117.4,61.8 115.6,71.7C112.6,71.7 110.1,71.6 109.1,71.6L108.1,78.3C108.7,78.4 111.1,78.4 114.4,78.4C111.1,93 109.5,107.2 109.5,117.7C109.5,129.9 112.1,137.6 118.4,137.6C124.4,137.6 128.4,133.4 132.8,124.2C131.5,134.3 130.8,143.4 130.8,150.5C130.8,167.1 137.5,170.1 144.1,170.1C151.7,170.1 157,161.4 157,151C157,144.1 154.6,136.5 148.8,130.5C155.9,128.2 161.1,123.4 165.2,116.9C165.1,118.3 165,119.7 165,121C165,130.6 167.6,137.5 175.2,137.5C179.1,137.5 182.4,135.1 185.1,131.2C184.5,134.8 183.8,138.2 183.2,141.5C172.2,151.1 163.6,159.6 163.6,169C163.6,176.6 168.2,180.3 174.6,180.3C183.8,180.3 189.2,169.7 191.7,155.2L194.3,140C215.1,122.7 242.4,100.9 242.4,64.9C242.6,37.8 223.5,25.6 202.3,25.6ZM179.1,165.3C178.2,169.7 177.1,172.6 174.7,172.6C173.3,172.6 171.8,171.5 171.8,168.7C171.8,162.8 175.7,157.1 181.7,151.2L179.1,165.3ZM166.8,31.6C167.7,31.6 168.2,32.7 168.2,34.8C168.2,36.6 168,38.5 167.8,40.4C165.3,43.2 163.3,46.2 161.6,49.5L165.7,51.2C162.2,65 155.7,79.4 150.7,88.6C156.8,59.4 163.9,31.6 166.8,31.6ZM150.2,153C150.2,158.4 148.3,162.7 145.3,162.7C142.9,162.7 141.9,158.5 141.9,151.7C141.9,147 142.3,141.2 143.1,134.6C148,139.6 150.2,147 150.2,153ZM196.2,130.5C200.3,107.1 205.7,78.1 207.4,71.3L195.7,71.3C192.8,84.6 187,126.9 179.8,126.9C178.5,126.9 176.9,126.2 176.9,122C176.9,116.3 178.2,109.5 179.8,101.5C183.4,83.2 186.3,71.3 186.3,71.3L174,71.3C174,71.3 171.1,82.6 167.5,101.3C167.4,101.8 167.3,102.2 167.3,102.7C162.6,115.2 155.7,123 144.3,124.5C145.3,117.8 146.4,110.6 147.9,103.3C154.1,94.7 167.1,75 172.4,52.4C178.8,39 190.2,32.8 202.4,32.8C219.9,32.8 232.5,44 232.5,65C232.4,95.1 213.9,114.9 196.2,130.5Z" style="fill:white;fill-rule:nonzero;"/>
        <path d="M79.4,100.4C62.8,100.4 52.9,113.6 52.9,128.3C52.9,133.5 54.2,138.8 56.8,143.8L70,137.3C67.7,133.3 66.7,129 66.7,125C66.7,116.3 71.7,108.9 78.7,108.9C86.7,108.9 91,117.8 91,128.4C91,144 81.5,163.4 59.9,163.4C41.4,163.4 32,147.6 32,129.7C32,110.5 42.9,88.9 65,81.8C69.3,84.2 74.5,85.7 80.6,85.7L81.5,85.7L82.8,74L81.4,74C77.5,74 73.7,74.3 70.2,74.9C68.6,73.2 67.3,71 66.3,68.7C90.6,62.1 102,44.6 102,30.5C102,19 94.6,9.7 80.5,9.7C60,9.7 48.7,30 48.7,49.7C48.7,54.7 49.4,59.6 50.9,64C48.7,64.1 46.6,64.3 44.3,64.3C20.7,64.3 11.4,52.6 11.4,42.8C11.4,36.1 16,30.3 23.4,30.3C30.3,30.3 33.9,33.9 36.6,39.8L46.5,32.3C40.8,22.3 33.3,18.7 23.4,18.7C9.2,18.7 0,30 0,42.2C0,56.2 12.5,71.4 44.3,71.4C47.7,71.4 50.9,71.3 54,71C55.3,73.3 57,75.4 58.9,77.3C31.7,85.9 17.6,109.4 17.6,130.8C17.6,151.9 31.2,170.6 59,170.6C88.8,170.6 103.9,147.4 103.9,127.6C103.9,113 95.7,100.4 79.4,100.4ZM80,16.8C85.6,16.8 88.9,22.2 88.9,29.3C88.9,40 81.6,54.8 63.8,61.1C62.9,57.2 62.5,53.1 62.5,48.8C62.5,32.9 68.5,16.8 80,16.8Z" style="fill:white;fill-rule:nonzero;"/>
        <path d="M607.8,102.4C601.5,118.9 596.8,126.9 593,126.9C591.7,126.9 590.1,126.2 590.1,122C590.1,110.3 599.4,93.2 599.4,79.9C599.4,73 596.1,69.7 591.1,69.7C585.1,69.7 579.3,74 574.8,80.9L576.4,71.3L564.1,71.3C562.8,79.8 561,90.5 558.9,102.5C555.2,112.2 549.6,120.2 543.6,127C547.8,104.2 552.5,77.6 554.2,71.3L542.5,71.3L541.2,77.5C540.2,72.5 537.8,69.9 533.3,69.9C523.2,69.9 514.6,86.2 510.8,102.9C504.6,119 499.9,126.9 496.2,126.9C494.9,126.9 493.3,126.2 493.3,122C493.3,110.3 497.5,93.6 502.5,71.3L490.3,71.3C488.7,78.3 485.3,90.9 483.2,103.3C481.1,108.6 479,113.5 476.4,117.7L476.4,117.1C476.4,101.1 462.4,86.2 461.9,74.1C463.6,67.8 465.1,60.9 466.2,53.2L456.5,51.3C454.2,58.3 453.2,64.6 453.2,70.4C453.2,75.3 453.9,79.9 454.9,84.2C452.2,91.1 449.5,97.5 447.6,102.4C442.1,117 435.1,125.9 426.7,125.9C420.1,125.9 417.7,119 417.7,110.4L417.7,108.2C434.6,105.5 443.2,91.7 443.2,81.5C443.2,74.9 439.6,69.7 432.5,69.7C416.5,69.7 405.7,93.5 405.7,113C405.7,126.5 410.9,137.9 423.3,137.9C437.3,137.9 444.5,123 451.7,104.2C453.3,99.9 455.1,95.5 456.7,90.7C459.9,100.9 464,109.5 464,118.4C464,123.6 462,126.1 458.4,126.1C455.7,126.1 454,125 452.1,121.8L443.4,128.1C445.4,134 450.9,137.8 457.6,137.8C468.8,137.8 476,129.2 481.7,117.9L481.7,120C481.7,129.9 484.3,137.1 492,137.1C499.8,137.1 504.6,129.8 508.8,120.2C508.9,130.4 511.8,137.8 518.7,137.8C524.6,137.8 529.3,133.5 532.9,127.1C532,131.5 531.5,136.1 530.6,140.4C520,150.6 510.8,158.7 510.8,168.6C510.8,176.2 515.4,179.9 521.8,179.9C531,179.9 536.4,169.3 538.9,154.8L542,136.3C546.4,131.8 550.8,126.5 554.8,120.2C552.6,128.6 551.9,136.3 551.9,136.3L564.4,136.3L570,107C574.7,86.8 581,80.1 584.6,80.1C586.2,80.1 586.9,81.4 586.9,83C586.9,93.3 577.6,109.2 577.6,124.7C577.6,133.4 582.3,137.5 587.3,137.5C599.1,137.5 605.5,120.9 611.8,104.5C611.9,103.5 608.7,102.4 607.8,102.4ZM431.3,78.7C432.7,78.7 433.6,80.1 433.6,82.3C433.6,87.6 428.9,97.5 418.1,102.8C419.8,90.9 425.4,78.7 431.3,78.7ZM526,165.3C525.1,169.7 524,172.6 521.6,172.6C520.2,172.6 518.7,171.4 518.7,168.7C518.7,161.8 522.9,156.2 528.9,149.9L526,165.3ZM523.7,125.9C521.6,125.9 520.7,122.9 520.7,118.5C520.7,105.5 528,80.2 534,80.2C537.2,80.2 538.4,83.9 538.4,89.2C538.5,102.5 530.3,125.9 523.7,125.9Z" style="fill:rgb(113,46,145);fill-rule:nonzero;"/>
    </g>
</svg>
